<svg width="68" height="79" viewBox="0 0 68 79" fill="none" xmlns="http://www.w3.org/2000/svg">
<path d="M54.8387 0H13.1613C9.67195 0.00406544 6.32668 1.39256 3.85934 3.8609C1.392 6.32924 0.0040638 9.67586 5.40468e-09 13.1666L5.40468e-09 69.1247C-6.40665e-05 71.0621 0.569547 72.9567 1.63791 74.5727C2.70627 76.1886 4.22617 77.4544 6.00837 78.2126C7.79056 78.9707 9.7563 79.1876 11.6608 78.8363C13.5653 78.485 15.3245 77.581 16.7192 76.2369L16.8508 76.1074L27.1232 65.8331H54.8387C58.3281 65.829 61.6733 64.4405 64.1407 61.9722C66.608 59.5038 67.9959 56.1572 68 52.6664V13.1666C67.9959 9.67586 66.608 6.32924 64.1407 3.8609C61.6733 1.39256 58.3281 0.00406544 54.8387 0Z" fill="white"/>
<path d="M54.8387 0H13.1613C9.67195 0.00406544 6.32668 1.39256 3.85934 3.8609C1.392 6.32924 0.0040638 9.67586 5.40468e-09 13.1666L5.40468e-09 69.1247C-6.40665e-05 71.0621 0.569547 72.9567 1.63791 74.5727C2.70627 76.1886 4.22617 77.4544 6.00837 78.2126C7.79056 78.9707 9.7563 79.1876 11.6608 78.8363C13.5653 78.485 15.3245 77.581 16.7192 76.2369L16.8508 76.1074L27.1232 65.8331H54.8387C58.3281 65.829 61.6733 64.4405 64.1407 61.9722C66.608 59.5038 67.9959 56.1572 68 52.6664V13.1666C67.9959 9.67586 66.608 6.32924 64.1407 3.8609C61.6733 1.39256 58.3281 0.00406544 54.8387 0V0ZM61.4194 52.6664C61.4141 54.4108 60.7192 56.0823 59.4862 57.3158C58.2532 58.5493 56.5824 59.2445 54.8387 59.2498H24.3966L12.1983 71.453C11.7382 71.9137 11.1517 72.2274 10.5133 72.3545C9.87483 72.4817 9.21303 72.4165 8.61161 72.1672C8.0102 71.918 7.49621 71.4958 7.13469 70.9542C6.77316 70.4127 6.58035 69.776 6.58065 69.1247C6.58065 69.0874 6.58065 69.0523 6.58065 69.015V46.0458H42.5548C43.4275 46.0458 44.2644 45.699 44.8814 45.0817C45.4985 44.4644 45.8452 43.6272 45.8452 42.7542C45.8452 41.8812 45.4985 41.0439 44.8814 40.4266C44.2644 39.8093 43.4275 39.4625 42.5548 39.4625H6.58065V13.1666C6.58585 11.4222 7.28084 9.75075 8.51382 8.51727C9.74681 7.28378 11.4176 6.58852 13.1613 6.58331H54.8387C56.5824 6.58852 58.2532 7.28378 59.4862 8.51727C60.7192 9.75075 61.4141 11.4222 61.4194 13.1666V19.7324H25.4452C24.5725 19.7324 23.7356 20.0792 23.1186 20.6965C22.5015 21.3138 22.1548 22.151 22.1548 23.024C22.1548 23.897 22.5015 24.7343 23.1186 25.3516C23.7356 25.9689 24.5725 26.3157 25.4452 26.3157H61.4194V52.6664Z" fill="#2A7DE1"/>
</svg>
